<svg width="2000" height="2000" viewBox="0 0 2000 2000" fill="none" xmlns="http://www.w3.org/2000/svg">
<path d="M1603.32 974.814C1617.38 988.873 1617.38 1011.67 1603.32 1025.73L1025.34 1603.7C1011.29 1617.76 988.492 1617.76 974.433 1603.7L396.458 1025.73C382.399 1011.67 382.399 988.873 396.458 974.814L974.433 396.84C988.492 382.781 1011.29 382.781 1025.34 396.84L1092.2 463.699L658.793 897.11C647.859 908.045 647.859 925.773 658.793 936.708L1062.85 1340.76C1073.78 1351.7 1091.51 1351.7 1102.44 1340.76L1535.85 907.35L1603.32 974.814Z" fill="#F5F5FA"/>
<rect x="1187.37" y="558.105" width="360.014" height="586.472" rx="28" transform="rotate(45 1187.37 558.105)" fill="url(#paint0_linear_36_111)"/>
<path d="M1586.35 957.844C1609.78 981.275 1609.78 1019.27 1586.35 1042.7L1042.32 1586.73C1018.88 1610.16 980.894 1610.16 957.462 1586.73L413.429 1042.7C389.997 1019.27 389.997 981.275 413.429 957.844L957.462 413.81C980.894 390.379 1018.88 390.379 1042.32 413.81L1092.2 463.699L658.793 897.11C647.859 908.045 647.859 925.773 658.793 936.708L1062.85 1340.76C1073.78 1351.7 1091.51 1351.7 1102.44 1340.76L1535.85 907.35L1586.35 957.844Z" fill="#F5F5FA"/>
<rect x="1187.37" y="558.105" width="360.014" height="586.472" rx="28" transform="rotate(45 1187.37 558.105)" fill="url(#paint1_linear_36_111)"/>
<defs>
<linearGradient id="paint0_linear_36_111" x1="1367.38" y1="558.105" x2="1367.38" y2="1144.58" gradientUnits="userSpaceOnUse">
<stop offset="0.286456" stop-color="#F5F5FA"/>
<stop offset="0.663997" stop-color="#F5F5FA" stop-opacity="0.5"/>
<stop offset="0.952063" stop-color="#1C1C26" stop-opacity="0"/>
</linearGradient>
<linearGradient id="paint1_linear_36_111" x1="1367.38" y1="558.105" x2="1367.38" y2="1144.58" gradientUnits="userSpaceOnUse">
<stop offset="0.286456" stop-color="#F5F5FA"/>
<stop offset="0.663997" stop-color="#F5F5FA" stop-opacity="0.5"/>
<stop offset="0.952063" stop-color="#1C1C26" stop-opacity="0"/>
</linearGradient>
</defs>
</svg>
